<svg xmlns="http://www.w3.org/2000/svg" viewBox="0 0 220 320" role="img" aria-label="Troféu da Copa">
  <defs>
    <linearGradient id="gold" x1="0" y1="0" x2="1" y2="1">
      <stop offset="0" stop-color="#f7e69a" />
      <stop offset="0.5" stop-color="#d8b14a" />
      <stop offset="1" stop-color="#9c7320" />
    </linearGradient>
  </defs>
  <circle cx="110" cy="72" r="42" fill="url(#gold)" />
  <ellipse cx="110" cy="72" rx="42" ry="16" fill="none" stroke="rgba(0,0,0,0.18)" stroke-width="2.5" />
  <path d="M110 30 a42 42 0 0 0 0 84" fill="none" stroke="rgba(0,0,0,0.18)" stroke-width="2.5" />
  <path d="M84 106 C 68 152 80 176 94 196 C 80 212 78 234 93 252 L127 252 C142 234 140 212 126 196 C140 176 152 152 136 106 C126 124 94 124 84 106 Z" fill="url(#gold)" />
  <rect x="74" y="252" width="72" height="16" rx="5" fill="url(#gold)" />
  <rect x="64" y="270" width="92" height="22" rx="7" fill="url(#gold)" />
</svg>
